<mxfile host="app.diagrams.net" modified="2022-10-11T15:01:01.219Z" agent="5.0 (Windows NT 10.0; Win64; x64) AppleWebKit/537.36 (KHTML, like Gecko) Chrome/106.0.0.0 Safari/537.36 Edg/106.0.1370.37" etag="4Py3WstmTBMP37x0EN4d" version="20.4.0" type="github">
  <diagram id="CnInzumJnTPs5Hds3TDu" name="Page-1">
    <mxGraphModel dx="1038" dy="617" grid="1" gridSize="10" guides="1" tooltips="1" connect="1" arrows="1" fold="1" page="1" pageScale="1" pageWidth="827" pageHeight="1169" math="0" shadow="0">
      <root>
        <mxCell id="0" />
        <mxCell id="1" parent="0" />
        <mxCell id="RVRpEzsb1ocNmuGHazfe-1" value="Solution" style="ellipse;whiteSpace=wrap;html=1;fillColor=#ffe6cc;strokeColor=#d79b00;" vertex="1" parent="1">
          <mxGeometry x="337" y="280" width="120" height="80" as="geometry" />
        </mxCell>
        <mxCell id="RVRpEzsb1ocNmuGHazfe-6" style="edgeStyle=orthogonalEdgeStyle;curved=1;rounded=0;orthogonalLoop=1;jettySize=auto;html=1;exitX=0;exitY=1;exitDx=0;exitDy=0;entryX=1;entryY=1;entryDx=0;entryDy=0;endArrow=none;endFill=0;" edge="1" parent="1" source="RVRpEzsb1ocNmuGHazfe-2" target="RVRpEzsb1ocNmuGHazfe-3">
          <mxGeometry relative="1" as="geometry">
            <Array as="points">
              <mxPoint x="486" y="300" />
              <mxPoint x="330" y="300" />
              <mxPoint x="330" y="228" />
            </Array>
          </mxGeometry>
        </mxCell>
        <mxCell id="RVRpEzsb1ocNmuGHazfe-8" style="edgeStyle=orthogonalEdgeStyle;curved=1;rounded=0;orthogonalLoop=1;jettySize=auto;html=1;exitX=0;exitY=1;exitDx=0;exitDy=0;entryX=0.75;entryY=0;entryDx=0;entryDy=0;endArrow=classic;endFill=1;" edge="1" parent="1" source="RVRpEzsb1ocNmuGHazfe-2" target="RVRpEzsb1ocNmuGHazfe-4">
          <mxGeometry relative="1" as="geometry" />
        </mxCell>
        <mxCell id="RVRpEzsb1ocNmuGHazfe-2" value="Planning" style="ellipse;whiteSpace=wrap;html=1;fillColor=#fff2cc;strokeColor=#d6b656;" vertex="1" parent="1">
          <mxGeometry x="468" y="159" width="120" height="80" as="geometry" />
        </mxCell>
        <mxCell id="RVRpEzsb1ocNmuGHazfe-3" value="Utilisateurs" style="ellipse;whiteSpace=wrap;html=1;fillColor=#fff2cc;strokeColor=#d6b656;" vertex="1" parent="1">
          <mxGeometry x="200" y="160" width="120" height="80" as="geometry" />
        </mxCell>
        <mxCell id="RVRpEzsb1ocNmuGHazfe-4" value="Gestionnaire en temps réelles des présences" style="rounded=1;whiteSpace=wrap;html=1;fillColor=#f8cecc;strokeColor=#b85450;" vertex="1" parent="1">
          <mxGeometry x="200" y="388" width="400" height="60" as="geometry" />
        </mxCell>
      </root>
    </mxGraphModel>
  </diagram>
</mxfile>
